<?xml version="1.0" encoding="iso-8859-1"?>
<!-- Generator: Adobe Illustrator 19.0.0, SVG Export Plug-In . SVG Version: 6.00 Build 0)  -->
<svg version="1.1" id="Layer_1" xmlns="http://www.w3.org/2000/svg" xmlns:xlink="http://www.w3.org/1999/xlink" x="0px" y="0px"
	 viewBox="0 0 512 512" style="enable-background:new 0 0 512 512;" xml:space="preserve">
<path style="fill:#B87FD9;" d="M488.727,0H256H23.273C10.42,0,0,10.418,0,23.273v465.455C0,501.58,10.42,512,23.273,512H256h232.727
	C501.58,512,512,501.58,512,488.727V23.273C512,10.418,501.58,0,488.727,0z"/>
<path style="fill:#933EC5;" d="M180.553,409.363c-7.844,4.124-17.341,3.434-24.509-1.772c-7.166-5.207-10.755-14.032-9.258-22.762
	l14.414-84.015l-61.034-59.488c-6.344-6.183-8.628-15.433-5.89-23.858c2.737-8.425,10.021-14.566,18.787-15.839l84.348-12.254
	l37.719-76.435c3.919-7.945,12.01-12.974,20.869-12.974V0H23.273C10.42,0,0,10.418,0,23.273v465.455C0,501.58,10.42,512,23.273,512
	H256V369.7L180.553,409.363z"/>
<path style="fill:#5A2479;" d="M417.724,217.468c-2.737-8.425-10.02-14.566-18.787-15.839l-84.345-12.254l-37.722-76.437
	c-3.919-7.945-12.01-12.974-20.869-12.974s-16.95,5.03-20.869,12.974l-37.719,76.435l-84.348,12.254
	c-8.766,1.274-16.052,7.415-18.787,15.839c-2.738,8.425-0.455,17.675,5.89,23.858l61.035,59.488l-14.414,84.015
	c-1.497,8.73,2.091,17.555,9.258,22.762c7.168,5.205,16.665,5.896,24.509,1.772L256,369.7l75.447,39.663
	c3.404,1.79,7.123,2.673,10.826,2.673c0.025,0,0.047,0,0.07,0c12.837-0.02,23.237-10.432,23.237-23.273
	c0-1.787-0.202-3.528-0.583-5.201l-14.195-82.749l61.035-59.488C418.178,235.143,420.462,225.893,417.724,217.468z"/>
<g>
</g>
<g>
</g>
<g>
</g>
<g>
</g>
<g>
</g>
<g>
</g>
<g>
</g>
<g>
</g>
<g>
</g>
<g>
</g>
<g>
</g>
<g>
</g>
<g>
</g>
<g>
</g>
<g>
</g>
</svg>
